<?xml version="1.0" encoding="utf-8"?>
<!-- Generator: Adobe Illustrator 17.0.0, SVG Export Plug-In . SVG Version: 6.00 Build 0)  -->
<!DOCTYPE svg PUBLIC "-//W3C//DTD SVG 1.1//EN" "http://www.w3.org/Graphics/SVG/1.1/DTD/svg11.dtd">
<svg version="1.1" id="Layer_1" xmlns="http://www.w3.org/2000/svg" xmlns:xlink="http://www.w3.org/1999/xlink" x="0px" y="0px"
	 width="512px" height="512px" viewBox="0 0 512 512" enable-background="new 0 0 512 512" xml:space="preserve">
<g id="Close">
	<path fill="#4D4D4D" d="M259.972,256.999l8.913-8.913c0.82-0.82,0.82-2.151,0-2.971c-0.82-0.82-2.151-0.82-2.971,0l-8.914,8.914
		l-8.914-8.914c-0.82-0.82-2.151-0.82-2.971,0c-0.82,0.82-0.82,2.151,0,2.971l8.914,8.913l-8.914,8.914
		c-0.82,0.82-0.82,2.151,0,2.971c0.82,0.82,2.151,0.82,2.971,0l8.914-8.914l8.914,8.914c0.82,0.82,2.151,0.82,2.971,0
		c0.82-0.82,0.82-2.151,0-2.971L259.972,256.999z"/>
</g>
</svg>
