<?xml version="1.0" encoding="utf-8"?>
<!-- Generator: Adobe Illustrator 17.0.0, SVG Export Plug-In . SVG Version: 6.00 Build 0)  -->
<!DOCTYPE svg PUBLIC "-//W3C//DTD SVG 1.1//EN" "http://www.w3.org/Graphics/SVG/1.1/DTD/svg11.dtd">
<svg version="1.1" id="Layer_1" xmlns="http://www.w3.org/2000/svg" xmlns:xlink="http://www.w3.org/1999/xlink" x="0px" y="0px"
	 width="512px" height="512px" viewBox="0 0 512 512" enable-background="new 0 0 512 512" xml:space="preserve">
<g>
	<path fill="#FFFFFF" d="M405,298c0,4.418-3.773,8-10.4,8H118.591c-6.628,0-13.591-3.582-13.591-8v-84c0-4.418,6.964-8,13.591-8
		H394.6c6.628,0,10.4,3.582,10.4,8V298z"/>
	<path fill="#4D4D4D" d="M394.6,307H118.591c-6.901,0-14.591-3.696-14.591-9v-84c0-5.304,7.69-9,14.591-9H394.6
		c6.712,0,11.4,3.701,11.4,9v84C406,303.299,401.312,307,394.6,307z M118.591,207c-6.354,0-12.591,3.467-12.591,7v84
		c0,3.532,6.237,7,12.591,7H394.6c5.623,0,9.4-2.813,9.4-7v-84c0-4.187-3.777-7-9.4-7H118.591z"/>
</g>
<polygon fill="#4D4D4D" points="390.656,242 374.677,269.675 358.699,242 "/>
</svg>
