<?xml version="1.0" encoding="utf-8"?>
<!-- Generator: Adobe Illustrator 17.0.0, SVG Export Plug-In . SVG Version: 6.00 Build 0)  -->
<!DOCTYPE svg PUBLIC "-//W3C//DTD SVG 1.1//EN" "http://www.w3.org/Graphics/SVG/1.1/DTD/svg11.dtd">
<svg version="1.1" id="Layer_1" xmlns="http://www.w3.org/2000/svg" xmlns:xlink="http://www.w3.org/1999/xlink" x="0px" y="0px"
	 width="512px" height="512px" viewBox="0 0 512 512" enable-background="new 0 0 512 512" xml:space="preserve">
<path fill="#FFFFFF" stroke="#4D4D4D" stroke-width="2" stroke-miterlimit="10" d="M481,298c0,4.418-5.66,8-15.6,8H51.387
	C41.445,306,31,302.418,31,298v-84c0-4.418,10.446-8,20.387-8H465.4c9.942,0,15.6,3.582,15.6,8V298z"/>
<g>
	<circle fill="#FFFFFF" stroke="#4D4D4D" stroke-width="3" stroke-miterlimit="10" cx="438.033" cy="249.579" r="14.123"/>
	<polygon fill="#4D4D4D" points="445.885,261.318 463.101,276.544 467.673,271.466 449.863,257.285 	"/>
</g>
<path fill="#E6E6E6" stroke="#4D4D4D" stroke-width="2" stroke-miterlimit="10" d="M133.948,298c0,4.418-1.303,8-3.59,8H35.099
	c-2.288,0-4.691-3.582-4.691-8v-84c0-4.418,2.403-8,4.691-8h95.26c2.288,0,3.59,3.582,3.59,8L133.948,298L133.948,298z"/>
<g>
	<rect x="65.868" y="227.667" fill="#999999" width="5" height="50"/>
	<rect x="56.836" y="227.667" fill="#999999" width="5" height="50"/>
	<rect x="48.173" y="227.667" fill="#999999" width="5" height="50"/>
	<polygon fill="#999999" points="116.401,252.667 104.868,272.667 93.336,252.667 	"/>
</g>
</svg>
