<?xml version="1.0" encoding="utf-8"?>
<!-- Generator: Adobe Illustrator 17.0.0, SVG Export Plug-In . SVG Version: 6.00 Build 0)  -->
<!DOCTYPE svg PUBLIC "-//W3C//DTD SVG 1.1//EN" "http://www.w3.org/Graphics/SVG/1.1/DTD/svg11.dtd">
<svg version="1.1" id="Layer_1" xmlns="http://www.w3.org/2000/svg" xmlns:xlink="http://www.w3.org/1999/xlink" x="0px" y="0px"
	 width="512px" height="512px" viewBox="0 0 512 512" enable-background="new 0 0 512 512" xml:space="preserve">
<g>
	<path fill="#BBC9D0" d="M255.666,231.002c-13.806,0.185-24.847,11.528-24.663,25.334c0.185,13.8,11.527,24.845,25.332,24.661
		c13.803-0.186,24.847-11.529,24.663-25.334C280.813,241.862,269.47,230.818,255.666,231.002z M255.592,271.217l-0.138-0.002
		c-2.126-0.063-3.625-1.629-3.565-3.724c0.059-2.059,1.595-3.553,3.651-3.553l0.123,0.002c2.185,0.065,3.667,1.615,3.606,3.77
		C259.208,269.775,257.697,271.217,255.592,271.217z M264.535,253.468c-0.5,0.71-1.599,1.592-2.985,2.672l-1.526,1.053
		c-0.837,0.651-1.343,1.264-1.533,1.866c-0.149,0.474-0.223,0.6-0.236,1.565l-0.002,0.245h-5.825l0.017-0.493
		c0.071-2.026,0.121-3.218,0.961-4.203c1.317-1.547,4.223-3.418,4.347-3.497c0.416-0.314,0.767-0.671,1.029-1.052
		c0.611-0.843,0.882-1.507,0.882-2.159c0-0.905-0.268-1.742-0.799-2.487c-0.51-0.719-1.48-1.083-2.882-1.083
		c-1.391,0-2.343,0.441-2.912,1.347c-0.586,0.931-0.882,1.909-0.882,2.908v0.248h-6.006l0.011-0.259
		c0.155-3.679,1.468-6.328,3.901-7.873c1.529-0.984,3.431-1.483,5.651-1.483c2.905,0,5.358,0.706,7.289,2.098
		c1.957,1.411,2.949,3.524,2.949,6.28C265.983,250.703,265.496,252.152,264.535,253.468z"/>
</g>
</svg>
