<?xml version="1.0" encoding="utf-8"?>
<!-- Generator: Adobe Illustrator 17.0.0, SVG Export Plug-In . SVG Version: 6.00 Build 0)  -->
<!DOCTYPE svg PUBLIC "-//W3C//DTD SVG 1.1//EN" "http://www.w3.org/Graphics/SVG/1.1/DTD/svg11.dtd">
<svg version="1.1" id="Layer_1" xmlns="http://www.w3.org/2000/svg" xmlns:xlink="http://www.w3.org/1999/xlink" x="0px" y="0px"
	 width="15px" height="15px" viewBox="0 0 15 15" enable-background="new 0 0 15 15" xml:space="preserve">
<g>
	<path fill="#4D4D4D" d="M12.646,0H2.354C1.952,0,1.625,0.327,1.625,0.729v13.543C1.625,14.673,1.952,15,2.354,15h10.293
		c0.402,0,0.729-0.327,0.729-0.729V0.729C13.375,0.327,13.048,0,12.646,0z M12.875,14.271c0,0.126-0.103,0.229-0.229,0.229H2.353
		c-0.126,0-0.229-0.103-0.229-0.229V0.729c0-0.126,0.103-0.229,0.229-0.229h10.293c0.126,0,0.229,0.103,0.229,0.229V14.271z"/>
	<path fill="#4D4D4D" d="M2.875,13.75h2.75V11h-2.75V13.75z M3.375,11.5h1.75v1.75h-1.75V11.5z"/>
	<path fill="#4D4D4D" d="M6.125,13.75h2.75V11h-2.75V13.75z M6.625,11.5h1.75v1.75h-1.75V11.5z"/>
	<path fill="#4D4D4D" d="M9.375,13.75h2.75v-6h-2.75V13.75z M9.875,8.25h1.75v5h-1.75V8.25z"/>
	<path fill="#4D4D4D" d="M2.875,10.5h2.75V7.75h-2.75V10.5z M3.375,8.25h1.75V10h-1.75V8.25z"/>
	<path fill="#4D4D4D" d="M6.125,10.5h2.75V7.75h-2.75V10.5z M6.625,8.25h1.75V10h-1.75V8.25z"/>
	<path fill="#4D4D4D" d="M2.875,7.25h2.75V4.5h-2.75V7.25z M3.375,5h1.75v1.75h-1.75V5z"/>
	<path fill="#4D4D4D" d="M6.125,7.25h2.75V4.5h-2.75V7.25z M6.625,5h1.75v1.75h-1.75V5z"/>
	<path fill="#4D4D4D" d="M9.375,7.25h2.75V4.5h-2.75V7.25z M9.875,5h1.75v1.75h-1.75V5z"/>
	<path fill="#4D4D4D" d="M2.875,3.75h9.25v-2.5h-9.25V3.75z M3.375,1.75h8.25v1.5h-8.25V1.75z"/>
</g>
</svg>
