<?xml version="1.0" encoding="utf-8"?>
<!-- Generator: Adobe Illustrator 17.0.0, SVG Export Plug-In . SVG Version: 6.00 Build 0)  -->
<!DOCTYPE svg PUBLIC "-//W3C//DTD SVG 1.1//EN" "http://www.w3.org/Graphics/SVG/1.1/DTD/svg11.dtd">
<svg version="1.1" id="Layer_1" xmlns="http://www.w3.org/2000/svg" xmlns:xlink="http://www.w3.org/1999/xlink" x="0px" y="0px"
	 width="512px" height="512px" viewBox="0 0 512 512" enable-background="new 0 0 512 512" xml:space="preserve">
<g>
	<path fill="#BECCD4" d="M289.333,272.667c0,1.461-0.411,2.816-1.07,4.008l-21.049-23.551l20.821-18.217
		c0.81,1.285,1.298,2.795,1.298,4.427L289.333,272.667L289.333,272.667z M256,257.4l28.972-25.35
		c-1.189-0.651-2.528-1.05-3.972-1.05h-50c-1.446,0-2.785,0.399-3.969,1.05L256,257.4z M264.077,255.867l-6.706,5.872
		c-0.392,0.342-0.881,0.512-1.371,0.512c-0.49,0-0.979-0.171-1.371-0.512l-6.708-5.872l-21.316,23.852
		c1.278,0.802,2.775,1.282,4.394,1.282h50c1.619,0,3.117-0.48,4.394-1.282L264.077,255.867z M223.965,234.907
		c-0.81,1.285-1.298,2.795-1.298,4.427v33.333c0,1.461,0.409,2.816,1.07,4.008l21.047-23.555L223.965,234.907z"/>
</g>
</svg>
