<?xml version="1.0" encoding="utf-8"?>
<!-- Generator: Adobe Illustrator 17.0.0, SVG Export Plug-In . SVG Version: 6.00 Build 0)  -->
<!DOCTYPE svg PUBLIC "-//W3C//DTD SVG 1.1//EN" "http://www.w3.org/Graphics/SVG/1.1/DTD/svg11.dtd">
<svg version="1.1" id="Layer_1" xmlns="http://www.w3.org/2000/svg" xmlns:xlink="http://www.w3.org/1999/xlink" x="0px" y="0px"
	 width="800px" height="600px" viewBox="0 0 800 600" enable-background="new 0 0 800 600" xml:space="preserve">
<rect fill="#096A82" width="800" height="30"/>
<rect y="30" fill="#CCCCCC" width="800" height="35"/>
<rect y="65" fill="#E6E6E6" width="800" height="100"/>
<rect y="165" fill="#F2F2F2" width="800" height="435"/>
<g>
	<circle fill="#FFFFFF" stroke="#1385A9" stroke-miterlimit="10" cx="18.133" cy="15" r="7.5"/>
	<polygon fill="#1385A9" points="15.973,9.897 23.195,11.721 23.265,17.753 16.045,16.049 	"/>
	<polygon fill="#1385A9" points="13,12.213 20.222,14.037 20.292,20.069 13.072,18.365 	"/>
	<polygon fill="#FFFFFF" points="16.009,12.938 20.219,13.818 20.257,17.076 16.045,16.049 	"/>
</g>
<g>
	<path fill="#BBC9D0" d="M783.678,7.501c-4.142,0.055-7.454,3.458-7.399,7.6c0.055,4.14,3.458,7.454,7.6,7.398
		c4.141-0.056,7.454-3.459,7.399-7.6C791.222,10.759,787.819,7.445,783.678,7.501z M783.656,19.565l-0.041-0.001
		c-0.638-0.019-1.088-0.489-1.07-1.117c0.018-0.618,0.479-1.066,1.095-1.066l0.037,0.001c0.656,0.02,1.1,0.485,1.082,1.131
		C784.741,19.133,784.287,19.565,783.656,19.565z M786.339,14.241c-0.15,0.213-0.48,0.478-0.895,0.802l-0.458,0.316
		c-0.251,0.195-0.403,0.379-0.46,0.56c-0.045,0.142-0.067,0.18-0.071,0.47l-0.001,0.073h-1.747l0.005-0.148
		c0.021-0.608,0.036-0.965,0.288-1.261c0.395-0.464,1.267-1.025,1.304-1.049c0.125-0.094,0.23-0.201,0.309-0.316
		c0.183-0.253,0.265-0.452,0.265-0.648c0-0.272-0.08-0.523-0.24-0.746c-0.153-0.216-0.444-0.325-0.865-0.325
		c-0.417,0-0.703,0.132-0.874,0.404c-0.176,0.279-0.265,0.573-0.265,0.872v0.074h-1.802l0.003-0.078
		c0.047-1.104,0.44-1.898,1.17-2.362c0.459-0.295,1.029-0.445,1.695-0.445c0.872,0,1.607,0.212,2.187,0.629
		c0.587,0.423,0.885,1.057,0.885,1.884C786.773,13.411,786.627,13.846,786.339,14.241z"/>
</g>
<g>
	<path fill="#BECCD4" d="M768.528,20.007c0,0.438-0.117,0.845-0.305,1.202l-5.999-7.065l5.934-5.465
		c0.231,0.385,0.37,0.838,0.37,1.328V20.007L768.528,20.007z M759.028,15.427l8.257-7.605c-0.339-0.195-0.721-0.315-1.132-0.315
		h-14.25c-0.412,0-0.794,0.12-1.131,0.315L759.028,15.427z M761.33,14.967l-1.911,1.762c-0.112,0.103-0.251,0.154-0.391,0.154
		c-0.14,0-0.279-0.051-0.391-0.154l-1.912-1.762l-6.075,7.155c0.364,0.241,0.791,0.385,1.252,0.385h14.25
		c0.461,0,0.888-0.144,1.252-0.385L761.33,14.967z M749.898,8.679c-0.231,0.385-0.37,0.838-0.37,1.328v10
		c0,0.438,0.117,0.845,0.305,1.202l5.998-7.066L749.898,8.679z"/>
</g>
<g id="Close">
	<path fill="#4D4D4D" d="M785.205,81.5l4.278-4.278c0.394-0.394,0.394-1.033,0-1.426s-1.032-0.394-1.426,0l-4.279,4.279
		l-4.279-4.279c-0.394-0.394-1.032-0.394-1.426,0c-0.394,0.394-0.394,1.033,0,1.426l4.279,4.278l-4.279,4.279
		c-0.394,0.394-0.394,1.033,0,1.426c0.394,0.394,1.032,0.394,1.426,0l4.279-4.279l4.279,4.279c0.394,0.394,1.032,0.394,1.426,0
		c0.394-0.394,0.394-1.033,0-1.426L785.205,81.5z"/>
</g>
<g>
	<g>
		<path fill="#666666" d="M765.761,79.926l-1.053-0.179c-0.11-0.354-0.251-0.695-0.423-1.022l0.62-0.868
			c0.263-0.37,0.223-0.874-0.1-1.194l-0.934-0.934c-0.175-0.175-0.407-0.272-0.655-0.272c-0.194,0-0.379,0.059-0.536,0.172
			l-0.871,0.62c-0.338-0.179-0.692-0.326-1.059-0.436l-0.175-1.04C760.5,74.326,760.115,74,759.66,74h-1.319
			c-0.454,0-0.84,0.326-0.915,0.774l-0.182,1.066c-0.351,0.11-0.692,0.254-1.018,0.429l-0.862-0.62
			c-0.157-0.113-0.344-0.172-0.539-0.172c-0.248,0-0.482,0.097-0.655,0.272l-0.937,0.934c-0.32,0.32-0.364,0.824-0.1,1.194
			l0.626,0.881c-0.172,0.329-0.31,0.671-0.417,1.025l-1.04,0.175c-0.448,0.075-0.774,0.461-0.774,0.915v1.319
			c0,0.454,0.326,0.84,0.774,0.915l1.066,0.182c0.11,0.351,0.254,0.692,0.429,1.018l-0.617,0.859c-0.263,0.37-0.223,0.874,0.1,1.194
			l0.934,0.934c0.175,0.175,0.407,0.272,0.655,0.272c0.194,0,0.379-0.059,0.536-0.172l0.881-0.626
			c0.316,0.166,0.649,0.301,0.99,0.407l0.175,1.053c0.075,0.448,0.461,0.774,0.915,0.774h1.322c0.454,0,0.84-0.326,0.915-0.774
			l0.179-1.053c0.354-0.11,0.695-0.251,1.022-0.423l0.868,0.62c0.157,0.113,0.344,0.172,0.539,0.172l0,0
			c0.248,0,0.479-0.097,0.655-0.272l0.934-0.934c0.32-0.32,0.364-0.824,0.1-1.194l-0.62-0.871c0.172-0.329,0.316-0.671,0.423-1.022
			l1.053-0.175c0.448-0.075,0.774-0.461,0.774-0.915V80.84C766.535,80.386,766.209,80.001,765.761,79.926z M765.689,82.16
			c0,0.041-0.028,0.075-0.069,0.082l-1.316,0.22c-0.166,0.028-0.298,0.151-0.338,0.31c-0.119,0.461-0.301,0.902-0.545,1.313
			c-0.085,0.144-0.079,0.323,0.019,0.461l0.774,1.09c0.022,0.031,0.019,0.079-0.01,0.107l-0.934,0.934
			c-0.022,0.022-0.044,0.025-0.059,0.025c-0.019,0-0.034-0.006-0.047-0.016l-1.087-0.774c-0.135-0.097-0.316-0.103-0.461-0.019
			c-0.41,0.244-0.853,0.426-1.313,0.545c-0.163,0.041-0.285,0.175-0.31,0.338l-0.223,1.316c-0.006,0.041-0.041,0.069-0.082,0.069
			h-1.319c-0.041,0-0.075-0.028-0.082-0.069l-0.22-1.316c-0.028-0.166-0.151-0.298-0.31-0.338c-0.448-0.116-0.88-0.295-1.285-0.526
			c-0.066-0.038-0.141-0.056-0.213-0.056c-0.085,0-0.172,0.025-0.244,0.079l-1.097,0.78c-0.016,0.01-0.031,0.016-0.047,0.016
			c-0.013,0-0.038-0.003-0.059-0.025l-0.934-0.934c-0.028-0.028-0.031-0.072-0.01-0.107l0.771-1.081
			c0.097-0.138,0.103-0.32,0.019-0.464c-0.244-0.407-0.433-0.849-0.551-1.31c-0.044-0.16-0.175-0.282-0.338-0.31l-1.325-0.226
			c-0.041-0.006-0.069-0.041-0.069-0.082v-1.319c0-0.041,0.028-0.075,0.069-0.082l1.307-0.22c0.166-0.028,0.301-0.151,0.341-0.313
			c0.116-0.461,0.295-0.905,0.536-1.316c0.085-0.144,0.075-0.323-0.022-0.457l-0.78-1.097c-0.022-0.031-0.019-0.079,0.01-0.107
			l0.934-0.934c0.022-0.022,0.044-0.025,0.059-0.025c0.019,0,0.034,0.006,0.047,0.016l1.081,0.771
			c0.138,0.097,0.32,0.103,0.464,0.019c0.407-0.244,0.849-0.433,1.31-0.551c0.16-0.044,0.282-0.175,0.31-0.338l0.226-1.325
			c0.006-0.041,0.041-0.069,0.082-0.069h1.319c0.041,0,0.075,0.028,0.082,0.069l0.22,1.307c0.028,0.166,0.151,0.301,0.313,0.341
			c0.473,0.119,0.925,0.304,1.344,0.551c0.144,0.085,0.323,0.079,0.461-0.019l1.081-0.777c0.016-0.01,0.031-0.016,0.047-0.016
			c0.013,0,0.038,0.003,0.059,0.025l0.934,0.934c0.028,0.028,0.031,0.072,0.01,0.107l-0.774,1.087
			c-0.097,0.135-0.103,0.316-0.019,0.461c0.244,0.41,0.426,0.853,0.545,1.313c0.041,0.163,0.175,0.285,0.338,0.31l1.316,0.223
			c0.041,0.006,0.069,0.041,0.069,0.082v1.319h-0.004V82.16z"/>
		<path fill="#666666" d="M759.03,78.262c-1.786,0-3.237,1.451-3.237,3.237s1.451,3.237,3.237,3.237s3.237-1.451,3.237-3.237
			S760.816,78.262,759.03,78.262z M759.03,83.889c-1.319,0-2.391-1.072-2.391-2.391c0-1.319,1.072-2.391,2.391-2.391
			s2.391,1.072,2.391,2.391C761.421,82.818,760.349,83.889,759.03,83.889z"/>
	</g>
</g>
<line fill="none" stroke="#4D4D4D" stroke-width="2" stroke-miterlimit="10" x1="772" y1="74" x2="772" y2="89"/>
<text transform="matrix(1 0 0 1 13 55)" fill="#096A82" font-family="'ArialNarrow'" font-size="18">TOTVS</text>
<text transform="matrix(1 0 0 1 65 53)" fill="#096A82" font-family="'ArialNarrow'" font-size="18">|</text>
</svg>
