<?xml version="1.0" encoding="UTF-8" standalone="no"?>
<!-- Created with Inkscape (http://www.inkscape.org/) -->

<svg
   xmlns:dc="http://purl.org/dc/elements/1.1/"
   xmlns:cc="http://creativecommons.org/ns#"
   xmlns:rdf="http://www.w3.org/1999/02/22-rdf-syntax-ns#"
   xmlns:svg="http://www.w3.org/2000/svg"
   xmlns="http://www.w3.org/2000/svg"
   xmlns:sodipodi="http://sodipodi.sourceforge.net/DTD/sodipodi-0.dtd"
   xmlns:inkscape="http://www.inkscape.org/namespaces/inkscape"
   width="1024"
   height="768"
   viewBox="0 0 270.93333 203.20001"
   version="1.1"
   id="svg8"
   inkscape:version="0.92.1 r15371"
   sodipodi:docname="protheus_default_full.svg">
  <defs
     id="defs2" />
  <sodipodi:namedview
     id="base"
     pagecolor="#ffffff"
     bordercolor="#666666"
     borderopacity="1.0"
     inkscape:pageopacity="0.0"
     inkscape:pageshadow="2"
     inkscape:zoom="0.60286458"
     inkscape:cx="512"
     inkscape:cy="384"
     inkscape:document-units="mm"
     inkscape:current-layer="g5108"
     showgrid="false"
     inkscape:snap-global="false"
     units="px"
     inkscape:window-width="1364"
     inkscape:window-height="706"
     inkscape:window-x="-8"
     inkscape:window-y="-8"
     inkscape:window-maximized="1" />
  <metadata
     id="metadata5">
    <rdf:RDF>
      <cc:Work
         rdf:about="">
        <dc:format>image/svg+xml</dc:format>
        <dc:type
           rdf:resource="http://purl.org/dc/dcmitype/StillImage" />
        <dc:title></dc:title>
      </cc:Work>
    </rdf:RDF>
  </metadata>
  <g
     inkscape:label="Layer 1"
     inkscape:groupmode="layer"
     id="layer1"
     transform="translate(0,-93.799983)">
    <g
       id="g5108"
       transform="matrix(0.33864381,0,0,0.32236879,0.02628865,93.771409)">
      <rect
         id="rect5036"
         height="30"
         width="800"
         x="0"
         y="0"
         style="fill:#096a82" />
      <rect
         id="rect5038"
         height="35"
         width="800"
         y="30"
         x="0"
         style="fill:#cccccc" />
      <rect
         id="rect5040"
         height="100"
         width="800"
         y="65"
         x="0"
         style="fill:#e6e6e6" />
      <rect
         id="rect5042"
         height="469.03531"
         width="800"
         y="165"
         x="-5.1228553e-018"
         style="fill:#f2f2f2;stroke-width:1.03838432" />
      <g
         id="g5052"
         transform="matrix(1.2194036,0,0,1.2917774,-2.2007198,-5.0470366)">
	<circle
   id="circle5044"
   r="7.5"
   cy="15"
   cx="18.132999"
   stroke-miterlimit="10"
   style="fill:#ffffff;stroke:#1385a9;stroke-miterlimit:10" />

	<polygon
   id="polygon5046"
   points="23.195,11.721 23.265,17.753 16.045,16.049 15.973,9.897 "
   style="fill:#1385a9" />

	<polygon
   id="polygon5048"
   points="20.222,14.037 20.292,20.069 13.072,18.365 13,12.213 "
   style="fill:#1385a9" />

	<polygon
   id="polygon5050"
   points="20.219,13.818 20.257,17.076 16.045,16.049 16.009,12.938 "
   style="fill:#ffffff" />

</g>
      <g
         id="g5056"
         transform="matrix(1.0417127,0,0,1.0943737,-32.380628,-2.1233794)">
	<path
   id="path5054"
   d="m 783.678,7.501 c -4.142,0.055 -7.454,3.458 -7.399,7.6 0.055,4.14 3.458,7.454 7.6,7.398 4.141,-0.056 7.454,-3.459 7.399,-7.6 -0.056,-4.14 -3.459,-7.454 -7.6,-7.398 z m -0.022,12.064 -0.041,-0.001 c -0.638,-0.019 -1.088,-0.489 -1.07,-1.117 0.018,-0.618 0.479,-1.066 1.095,-1.066 l 0.037,0.001 c 0.656,0.02 1.1,0.485 1.082,1.131 -0.018,0.62 -0.472,1.052 -1.103,1.052 z m 2.683,-5.324 c -0.15,0.213 -0.48,0.478 -0.895,0.802 l -0.458,0.316 c -0.251,0.195 -0.403,0.379 -0.46,0.56 -0.045,0.142 -0.067,0.18 -0.071,0.47 l -0.001,0.073 h -1.747 l 0.005,-0.148 c 0.021,-0.608 0.036,-0.965 0.288,-1.261 0.395,-0.464 1.267,-1.025 1.304,-1.049 0.125,-0.094 0.23,-0.201 0.309,-0.316 0.183,-0.253 0.265,-0.452 0.265,-0.648 0,-0.272 -0.08,-0.523 -0.24,-0.746 -0.153,-0.216 -0.444,-0.325 -0.865,-0.325 -0.417,0 -0.703,0.132 -0.874,0.404 -0.176,0.279 -0.265,0.573 -0.265,0.872 v 0.074 h -1.802 l 0.003,-0.078 c 0.047,-1.104 0.44,-1.898 1.17,-2.362 0.459,-0.295 1.029,-0.445 1.695,-0.445 0.872,0 1.607,0.212 2.187,0.629 0.587,0.423 0.885,1.057 0.885,1.884 10e-4,0.464 -0.145,0.899 -0.433,1.294 z"
   inkscape:connector-curvature="0"
   style="fill:#bbc9d0" />

</g>
      <g
         id="g5060"
         transform="matrix(0.94578752,0,0,0.98489683,40.633756,0.33992651)">
	<path
   id="path5058"
   d="m 768.528,20.007 c 0,0.438 -0.117,0.845 -0.305,1.202 l -5.999,-7.065 5.934,-5.465 c 0.231,0.385 0.37,0.838 0.37,1.328 z m -9.5,-4.58 8.257,-7.605 c -0.339,-0.195 -0.721,-0.315 -1.132,-0.315 h -14.25 c -0.412,0 -0.794,0.12 -1.131,0.315 z m 2.302,-0.46 -1.911,1.762 c -0.112,0.103 -0.251,0.154 -0.391,0.154 -0.14,0 -0.279,-0.051 -0.391,-0.154 l -1.912,-1.762 -6.075,7.155 c 0.364,0.241 0.791,0.385 1.252,0.385 h 14.25 c 0.461,0 0.888,-0.144 1.252,-0.385 z M 749.898,8.679 c -0.231,0.385 -0.37,0.838 -0.37,1.328 v 10 c 0,0.438 0.117,0.845 0.305,1.202 l 5.998,-7.066 z"
   inkscape:connector-curvature="0"
   style="fill:#beccd4" />

</g>
      <g
         id="Close">
	<path
   id="path5062"
   d="m 785.205,81.5 4.278,-4.278 c 0.394,-0.394 0.394,-1.033 0,-1.426 -0.394,-0.393 -1.032,-0.394 -1.426,0 l -4.279,4.279 -4.279,-4.279 c -0.394,-0.394 -1.032,-0.394 -1.426,0 -0.394,0.394 -0.394,1.033 0,1.426 l 4.279,4.278 -4.279,4.279 c -0.394,0.394 -0.394,1.033 0,1.426 0.394,0.394 1.032,0.394 1.426,0 l 4.279,-4.279 4.279,4.279 c 0.394,0.394 1.032,0.394 1.426,0 0.394,-0.394 0.394,-1.033 0,-1.426 z"
   inkscape:connector-curvature="0"
   style="fill:#4d4d4d" />

</g>
      <g
         id="g5071">
	<g
   id="g5069">
		<path
   id="path5065"
   d="m 765.761,79.926 -1.053,-0.179 c -0.11,-0.354 -0.251,-0.695 -0.423,-1.022 l 0.62,-0.868 c 0.263,-0.37 0.223,-0.874 -0.1,-1.194 l -0.934,-0.934 c -0.175,-0.175 -0.407,-0.272 -0.655,-0.272 -0.194,0 -0.379,0.059 -0.536,0.172 l -0.871,0.62 c -0.338,-0.179 -0.692,-0.326 -1.059,-0.436 l -0.175,-1.04 C 760.5,74.326 760.115,74 759.66,74 h -1.319 c -0.454,0 -0.84,0.326 -0.915,0.774 l -0.182,1.066 c -0.351,0.11 -0.692,0.254 -1.018,0.429 l -0.862,-0.62 c -0.157,-0.113 -0.344,-0.172 -0.539,-0.172 -0.248,0 -0.482,0.097 -0.655,0.272 l -0.937,0.934 c -0.32,0.32 -0.364,0.824 -0.1,1.194 l 0.626,0.881 c -0.172,0.329 -0.31,0.671 -0.417,1.025 l -1.04,0.175 c -0.448,0.075 -0.774,0.461 -0.774,0.915 v 1.319 c 0,0.454 0.326,0.84 0.774,0.915 l 1.066,0.182 c 0.11,0.351 0.254,0.692 0.429,1.018 l -0.617,0.859 c -0.263,0.37 -0.223,0.874 0.1,1.194 l 0.934,0.934 c 0.175,0.175 0.407,0.272 0.655,0.272 0.194,0 0.379,-0.059 0.536,-0.172 l 0.881,-0.626 c 0.316,0.166 0.649,0.301 0.99,0.407 l 0.175,1.053 c 0.075,0.448 0.461,0.774 0.915,0.774 h 1.322 c 0.454,0 0.84,-0.326 0.915,-0.774 l 0.179,-1.053 c 0.354,-0.11 0.695,-0.251 1.022,-0.423 l 0.868,0.62 c 0.157,0.113 0.344,0.172 0.539,0.172 v 0 c 0.248,0 0.479,-0.097 0.655,-0.272 l 0.934,-0.934 c 0.32,-0.32 0.364,-0.824 0.1,-1.194 l -0.62,-0.871 c 0.172,-0.329 0.316,-0.671 0.423,-1.022 l 1.053,-0.175 c 0.448,-0.075 0.774,-0.461 0.774,-0.915 V 80.84 c 0.005,-0.454 -0.321,-0.839 -0.769,-0.914 z m -0.072,2.234 c 0,0.041 -0.028,0.075 -0.069,0.082 l -1.316,0.22 c -0.166,0.028 -0.298,0.151 -0.338,0.31 -0.119,0.461 -0.301,0.902 -0.545,1.313 -0.085,0.144 -0.079,0.323 0.019,0.461 l 0.774,1.09 c 0.022,0.031 0.019,0.079 -0.01,0.107 l -0.934,0.934 c -0.022,0.022 -0.044,0.025 -0.059,0.025 -0.019,0 -0.034,-0.006 -0.047,-0.016 l -1.087,-0.774 c -0.135,-0.097 -0.316,-0.103 -0.461,-0.019 -0.41,0.244 -0.853,0.426 -1.313,0.545 -0.163,0.041 -0.285,0.175 -0.31,0.338 l -0.223,1.316 c -0.006,0.041 -0.041,0.069 -0.082,0.069 h -1.319 c -0.041,0 -0.075,-0.028 -0.082,-0.069 l -0.22,-1.316 c -0.028,-0.166 -0.151,-0.298 -0.31,-0.338 -0.448,-0.116 -0.88,-0.295 -1.285,-0.526 -0.066,-0.038 -0.141,-0.056 -0.213,-0.056 -0.085,0 -0.172,0.025 -0.244,0.079 l -1.097,0.78 c -0.016,0.01 -0.031,0.016 -0.047,0.016 -0.013,0 -0.038,-0.003 -0.059,-0.025 l -0.934,-0.934 c -0.028,-0.028 -0.031,-0.072 -0.01,-0.107 l 0.771,-1.081 c 0.097,-0.138 0.103,-0.32 0.019,-0.464 -0.244,-0.407 -0.433,-0.849 -0.551,-1.31 -0.044,-0.16 -0.175,-0.282 -0.338,-0.31 l -1.325,-0.226 c -0.041,-0.006 -0.069,-0.041 -0.069,-0.082 v -1.319 c 0,-0.041 0.028,-0.075 0.069,-0.082 l 1.307,-0.22 c 0.166,-0.028 0.301,-0.151 0.341,-0.313 0.116,-0.461 0.295,-0.905 0.536,-1.316 0.085,-0.144 0.075,-0.323 -0.022,-0.457 l -0.78,-1.097 c -0.022,-0.031 -0.019,-0.079 0.01,-0.107 l 0.934,-0.934 c 0.022,-0.022 0.044,-0.025 0.059,-0.025 0.019,0 0.034,0.006 0.047,0.016 l 1.081,0.771 c 0.138,0.097 0.32,0.103 0.464,0.019 0.407,-0.244 0.849,-0.433 1.31,-0.551 0.16,-0.044 0.282,-0.175 0.31,-0.338 l 0.226,-1.325 c 0.006,-0.041 0.041,-0.069 0.082,-0.069 h 1.319 c 0.041,0 0.075,0.028 0.082,0.069 l 0.22,1.307 c 0.028,0.166 0.151,0.301 0.313,0.341 0.473,0.119 0.925,0.304 1.344,0.551 0.144,0.085 0.323,0.079 0.461,-0.019 l 1.081,-0.777 c 0.016,-0.01 0.031,-0.016 0.047,-0.016 0.013,0 0.038,0.003 0.059,0.025 l 0.934,0.934 c 0.028,0.028 0.031,0.072 0.01,0.107 l -0.774,1.087 c -0.097,0.135 -0.103,0.316 -0.019,0.461 0.244,0.41 0.426,0.853 0.545,1.313 0.041,0.163 0.175,0.285 0.338,0.31 l 1.316,0.223 c 0.041,0.006 0.069,0.041 0.069,0.082 v 1.319 H 765.69 V 82.16 Z"
   inkscape:connector-curvature="0"
   style="fill:#666666" />

		<path
   id="path5067"
   d="m 759.03,78.262 c -1.786,0 -3.237,1.451 -3.237,3.237 0,1.786 1.451,3.237 3.237,3.237 1.786,0 3.237,-1.451 3.237,-3.237 0,-1.786 -1.451,-3.237 -3.237,-3.237 z m 0,5.627 c -1.319,0 -2.391,-1.072 -2.391,-2.391 0,-1.319 1.072,-2.391 2.391,-2.391 1.319,0 2.391,1.072 2.391,2.391 0,1.32 -1.072,2.391 -2.391,2.391 z"
   inkscape:connector-curvature="0"
   style="fill:#666666" />

	</g>

</g>
      <line
         id="line5073"
         y2="89"
         x2="772"
         y1="74"
         x1="772"
         stroke-miterlimit="10"
         style="fill:none;stroke:#4d4d4d;stroke-width:2;stroke-miterlimit:10" />
    </g>
  </g>
</svg>
