<?xml version="1.0" encoding="utf-8"?>
<!-- Generator: Adobe Illustrator 17.0.0, SVG Export Plug-In . SVG Version: 6.00 Build 0)  -->
<!DOCTYPE svg PUBLIC "-//W3C//DTD SVG 1.1//EN" "http://www.w3.org/Graphics/SVG/1.1/DTD/svg11.dtd">
<svg version="1.1" id="Layer_1" xmlns="http://www.w3.org/2000/svg" xmlns:xlink="http://www.w3.org/1999/xlink" x="0px" y="0px"
	 width="800px" height="600px" viewBox="0 0 800 600" enable-background="new 0 0 800 600" xml:space="preserve">
<rect fill="#096A82" width="800" height="30"/>
<rect y="30" fill="#CCCCCC" width="800" height="35"/>
<rect y="65" fill="#E6E6E6" width="800" height="70"/>
<rect y="135" fill="#F2F2F2" width="800" height="465"/>
<g>
	<circle fill="#FFFFFF" stroke="#1385A9" stroke-miterlimit="10" cx="18.133" cy="15" r="7.5"/>
	<polygon fill="#1385A9" points="15.973,9.897 23.195,11.721 23.265,17.753 16.045,16.049 	"/>
	<polygon fill="#1385A9" points="13,12.213 20.222,14.037 20.292,20.069 13.072,18.365 	"/>
	<polygon fill="#FFFFFF" points="16.009,12.938 20.219,13.818 20.257,17.076 16.045,16.049 	"/>
</g>
<g>
	<path fill="#BBC9D0" d="M783.678,7.501c-4.142,0.055-7.454,3.458-7.399,7.6c0.055,4.14,3.458,7.454,7.6,7.398
		c4.141-0.056,7.454-3.459,7.399-7.6C791.222,10.759,787.819,7.445,783.678,7.501z M783.656,19.565l-0.041-0.001
		c-0.638-0.019-1.088-0.489-1.07-1.117c0.018-0.618,0.479-1.066,1.095-1.066l0.037,0.001c0.656,0.02,1.1,0.485,1.082,1.131
		C784.741,19.133,784.287,19.565,783.656,19.565z M786.339,14.241c-0.15,0.213-0.48,0.478-0.895,0.802l-0.458,0.316
		c-0.251,0.195-0.403,0.379-0.46,0.56c-0.045,0.142-0.067,0.18-0.071,0.47l-0.001,0.073h-1.747l0.005-0.148
		c0.021-0.608,0.036-0.965,0.288-1.261c0.395-0.464,1.267-1.025,1.304-1.049c0.125-0.094,0.23-0.201,0.309-0.316
		c0.183-0.253,0.265-0.452,0.265-0.648c0-0.272-0.08-0.523-0.24-0.746c-0.153-0.216-0.444-0.325-0.865-0.325
		c-0.417,0-0.703,0.132-0.874,0.404c-0.176,0.279-0.265,0.573-0.265,0.872v0.074h-1.802l0.003-0.078
		c0.047-1.104,0.44-1.898,1.17-2.362c0.459-0.295,1.029-0.445,1.695-0.445c0.872,0,1.607,0.212,2.187,0.629
		c0.587,0.423,0.885,1.057,0.885,1.884C786.773,13.411,786.627,13.846,786.339,14.241z"/>
</g>
<g>
	<path fill="#BECCD4" d="M768.528,20.007c0,0.438-0.117,0.845-0.305,1.202l-5.999-7.065l5.934-5.465
		c0.231,0.385,0.37,0.838,0.37,1.328V20.007L768.528,20.007z M759.028,15.427l8.257-7.605c-0.339-0.195-0.721-0.315-1.132-0.315
		h-14.25c-0.412,0-0.794,0.12-1.131,0.315L759.028,15.427z M761.33,14.967l-1.911,1.762c-0.112,0.103-0.251,0.154-0.391,0.154
		c-0.14,0-0.279-0.051-0.391-0.154l-1.912-1.762l-6.075,7.155c0.364,0.241,0.791,0.385,1.252,0.385h14.25
		c0.461,0,0.888-0.144,1.252-0.385L761.33,14.967z M749.898,8.679c-0.231,0.385-0.37,0.838-0.37,1.328v10
		c0,0.438,0.117,0.845,0.305,1.202l5.998-7.066L749.898,8.679z"/>
</g>
<text transform="matrix(1 0 0 1 13 55)" fill="#096A82" font-family="'ArialNarrow'" font-size="18">TOTVS</text>
<text transform="matrix(1 0 0 1 65 53)" fill="#096A82" font-family="'ArialNarrow'" font-size="18">|</text>
</svg>
