<?xml version="1.0" encoding="utf-8"?>
<!-- Generator: Adobe Illustrator 17.0.0, SVG Export Plug-In . SVG Version: 6.00 Build 0)  -->
<!DOCTYPE svg PUBLIC "-//W3C//DTD SVG 1.1//EN" "http://www.w3.org/Graphics/SVG/1.1/DTD/svg11.dtd">
<svg version="1.1" id="Layer_1" xmlns="http://www.w3.org/2000/svg" xmlns:xlink="http://www.w3.org/1999/xlink" x="0px" y="0px"
	 width="512px" height="512px" viewBox="0 0 512 512" enable-background="new 0 0 512 512" xml:space="preserve">
<g>
	<g>
		<path fill="#666666" d="M267.22,253.376l-1.755-0.298c-0.183-0.59-0.418-1.159-0.705-1.703l1.034-1.447
			c0.439-0.616,0.371-1.457-0.167-1.99l-1.556-1.556c-0.292-0.292-0.679-0.454-1.091-0.454c-0.324,0-0.632,0.099-0.893,0.287
			l-1.452,1.034c-0.564-0.298-1.154-0.543-1.765-0.726l-0.292-1.734c-0.125-0.747-0.768-1.29-1.525-1.29h-2.199
			c-0.757,0-1.4,0.543-1.525,1.29l-0.303,1.776c-0.585,0.183-1.154,0.423-1.697,0.715l-1.436-1.034
			c-0.261-0.188-0.574-0.287-0.898-0.287c-0.413,0-0.804,0.162-1.091,0.454l-1.562,1.556c-0.533,0.533-0.606,1.374-0.167,1.99
			l1.044,1.468c-0.287,0.548-0.517,1.118-0.695,1.708l-1.734,0.292c-0.747,0.125-1.29,0.768-1.29,1.525v2.199
			c0,0.757,0.543,1.4,1.29,1.525l1.776,0.303c0.183,0.585,0.423,1.154,0.715,1.697l-1.029,1.431
			c-0.439,0.616-0.371,1.457,0.167,1.99l1.556,1.556c0.292,0.292,0.679,0.454,1.091,0.454c0.324,0,0.632-0.099,0.893-0.287
			l1.468-1.044c0.527,0.277,1.081,0.501,1.65,0.679l0.292,1.755c0.125,0.747,0.768,1.29,1.525,1.29h2.204
			c0.757,0,1.4-0.543,1.525-1.29l0.298-1.755c0.59-0.183,1.159-0.418,1.703-0.705l1.447,1.034c0.261,0.188,0.574,0.287,0.898,0.287
			l0,0c0.413,0,0.799-0.162,1.091-0.454l1.556-1.556c0.533-0.533,0.606-1.374,0.167-1.99l-1.034-1.452
			c0.287-0.548,0.527-1.118,0.705-1.703l1.755-0.292c0.747-0.125,1.29-0.768,1.29-1.525v-2.199
			C268.51,254.143,267.967,253.501,267.22,253.376z M267.1,257.099c0,0.068-0.047,0.125-0.115,0.136l-2.193,0.366
			c-0.277,0.047-0.496,0.251-0.564,0.517c-0.198,0.768-0.501,1.504-0.909,2.188c-0.141,0.24-0.131,0.538,0.031,0.768l1.29,1.817
			c0.037,0.052,0.031,0.131-0.016,0.178l-1.556,1.556c-0.037,0.037-0.073,0.042-0.099,0.042c-0.031,0-0.057-0.01-0.078-0.026
			l-1.812-1.29c-0.225-0.162-0.527-0.172-0.768-0.031c-0.684,0.407-1.421,0.71-2.188,0.909c-0.272,0.068-0.475,0.292-0.517,0.564
			l-0.371,2.193c-0.01,0.068-0.068,0.115-0.136,0.115h-2.199c-0.068,0-0.125-0.047-0.136-0.115l-0.366-2.193
			c-0.047-0.277-0.251-0.496-0.517-0.564c-0.747-0.193-1.467-0.491-2.141-0.877c-0.11-0.063-0.235-0.094-0.355-0.094
			c-0.141,0-0.287,0.042-0.407,0.131l-1.828,1.3c-0.026,0.016-0.052,0.026-0.078,0.026c-0.021,0-0.063-0.005-0.099-0.042
			l-1.556-1.556c-0.047-0.047-0.052-0.12-0.016-0.178l1.285-1.802c0.162-0.23,0.172-0.533,0.031-0.773
			c-0.407-0.679-0.721-1.415-0.919-2.183c-0.073-0.266-0.292-0.47-0.564-0.517l-2.209-0.376c-0.068-0.01-0.115-0.068-0.115-0.136
			v-2.199c0-0.068,0.047-0.125,0.115-0.136l2.178-0.366c0.277-0.047,0.501-0.251,0.569-0.522c0.193-0.768,0.491-1.509,0.893-2.193
			c0.141-0.24,0.125-0.538-0.037-0.762l-1.3-1.828c-0.037-0.052-0.031-0.131,0.016-0.178l1.556-1.556
			c0.037-0.037,0.073-0.042,0.099-0.042c0.031,0,0.057,0.01,0.078,0.026l1.802,1.285c0.23,0.162,0.533,0.172,0.773,0.031
			c0.679-0.407,1.415-0.721,2.183-0.919c0.266-0.073,0.47-0.292,0.517-0.564l0.376-2.209c0.01-0.068,0.068-0.115,0.136-0.115h2.199
			c0.068,0,0.125,0.047,0.136,0.115l0.366,2.178c0.047,0.277,0.251,0.501,0.522,0.569c0.789,0.198,1.541,0.507,2.24,0.919
			c0.24,0.141,0.538,0.131,0.768-0.031l1.802-1.295c0.026-0.016,0.052-0.026,0.078-0.026c0.021,0,0.063,0.005,0.099,0.042
			l1.556,1.556c0.047,0.047,0.052,0.12,0.016,0.178l-1.29,1.812c-0.162,0.225-0.172,0.527-0.031,0.768
			c0.407,0.684,0.71,1.421,0.909,2.188c0.068,0.272,0.292,0.475,0.564,0.517l2.193,0.371c0.068,0.01,0.115,0.068,0.115,0.136v2.199
			H267.1z"/>
		<path fill="#666666" d="M256.003,250.603c-2.977,0-5.395,2.418-5.395,5.395c0,2.977,2.418,5.395,5.395,5.395
			c2.977,0,5.395-2.418,5.395-5.395S258.979,250.603,256.003,250.603z M256.003,259.982c-2.199,0-3.985-1.786-3.985-3.985
			c0-2.199,1.786-3.985,3.985-3.985c2.199,0,3.985,1.786,3.985,3.985C259.987,258.196,258.201,259.982,256.003,259.982z"/>
	</g>
</g>
</svg>
