<?xml version="1.0" encoding="utf-8"?>
<!-- Generator: Adobe Illustrator 17.0.0, SVG Export Plug-In . SVG Version: 6.00 Build 0)  -->
<!DOCTYPE svg PUBLIC "-//W3C//DTD SVG 1.1//EN" "http://www.w3.org/Graphics/SVG/1.1/DTD/svg11.dtd">
<svg version="1.1" id="Layer_1" xmlns="http://www.w3.org/2000/svg" xmlns:xlink="http://www.w3.org/1999/xlink" x="0px" y="0px"
	 width="512px" height="512px" viewBox="0 0 512 512" enable-background="new 0 0 512 512" xml:space="preserve">
<path fill="#FFFFFF" stroke="#4D4D4D" stroke-width="2" stroke-miterlimit="10" d="M405,298c0,4.418-3.773,8-10.4,8H118.591
	c-6.628,0-13.591-3.582-13.591-8v-84c0-4.418,6.964-8,13.591-8H394.6c6.628,0,10.4,3.582,10.4,8V298z"/>
<g>
	<rect x="372" y="249" fill="#666666" width="15" height="15"/>
	<rect x="354" y="249" fill="#666666" width="16" height="15"/>
	<rect x="337" y="249" fill="#666666" width="15" height="15"/>
	<rect x="372" y="232" fill="#666666" width="15" height="15"/>
	<rect x="354" y="232" fill="#666666" width="16" height="15"/>
	<rect x="337" y="232" fill="#666666" width="15" height="15"/>
	<rect x="337" y="226" fill="#666666" width="50" height="3"/>
	<rect x="337" y="266" fill="#666666" width="15" height="16"/>
	<rect x="354" y="266" fill="#666666" width="16" height="16"/>
	<rect x="372" y="266" fill="#666666" width="15" height="16"/>
</g>
</svg>
