<?xml version="1.0" encoding="utf-8"?>
<!-- Generator: Adobe Illustrator 17.0.0, SVG Export Plug-In . SVG Version: 6.00 Build 0)  -->
<!DOCTYPE svg PUBLIC "-//W3C//DTD SVG 1.1//EN" "http://www.w3.org/Graphics/SVG/1.1/DTD/svg11.dtd">
<svg version="1.1" id="Layer_1" xmlns="http://www.w3.org/2000/svg" xmlns:xlink="http://www.w3.org/1999/xlink" x="0px" y="0px"
	 width="512px" height="512px" viewBox="0 0 512 512" enable-background="new 0 0 512 512" xml:space="preserve">
<g>
	<path fill="#FFFFFF" d="M405,298c0,4.418-3.773,8-10.4,8H118.591c-6.628,0-13.591-3.582-13.591-8v-84c0-4.418,6.964-8,13.591-8
		H394.6c6.628,0,10.4,3.582,10.4,8V298z"/>
	<path fill="#4D4D4D" d="M394.6,307H118.591c-6.901,0-14.591-3.696-14.591-9v-84c0-5.304,7.69-9,14.591-9H394.6
		c6.712,0,11.4,3.701,11.4,9v84C406,303.299,401.312,307,394.6,307z M118.591,207c-6.354,0-12.591,3.467-12.591,7v84
		c0,3.532,6.237,7,12.591,7H394.6c5.623,0,9.4-2.813,9.4-7v-84c0-4.187-3.777-7-9.4-7H118.591z"/>
</g>
<g>
	<path fill="#4D4D4D" d="M393.656,228.576h-37.637c-1.469,0-2.664,1.196-2.664,2.664v49.521c0,1.468,1.195,2.664,2.664,2.664h37.637
		c1.469,0,2.664-1.196,2.664-2.664V231.24C396.319,229.772,395.125,228.576,393.656,228.576z M394.491,280.76
		c0,0.461-0.375,0.836-0.836,0.836h-37.637c-0.461,0-0.836-0.375-0.836-0.836V231.24c0-0.461,0.375-0.836,0.836-0.836h37.637
		c0.461,0,0.836,0.375,0.836,0.836V280.76z"/>
	<path fill="#4D4D4D" d="M357.926,278.853h10.056v-10.056h-10.056V278.853z M359.754,270.626h6.399v6.399h-6.399V270.626z"/>
	<path fill="#4D4D4D" d="M369.81,278.853h10.056v-10.056H369.81V278.853z M371.638,270.626h6.399v6.399h-6.399V270.626z"/>
	<path fill="#4D4D4D" d="M381.693,278.853h10.056v-21.939h-10.056V278.853z M383.522,258.742h6.399v18.283h-6.399V258.742z"/>
	<path fill="#4D4D4D" d="M357.926,266.97h10.056v-10.056h-10.056V266.97z M359.754,258.742h6.399v6.399h-6.399V258.742z"/>
	<path fill="#4D4D4D" d="M369.81,266.97h10.056v-10.056H369.81V266.97z M371.638,258.742h6.399v6.399h-6.399V258.742z"/>
	<path fill="#4D4D4D" d="M357.926,255.086h10.056V245.03h-10.056V255.086z M359.754,246.859h6.399v6.399h-6.399V246.859z"/>
	<path fill="#4D4D4D" d="M369.81,255.086h10.056V245.03H369.81V255.086z M371.638,246.859h6.399v6.399h-6.399V246.859z"/>
	<path fill="#4D4D4D" d="M381.693,255.086h10.056V245.03h-10.056V255.086z M383.522,246.859h6.399v6.399h-6.399V246.859z"/>
	<path fill="#4D4D4D" d="M357.926,242.288h33.823v-9.141h-33.823V242.288z M359.754,234.975h30.167v5.485h-30.167V234.975z"/>
</g>
</svg>
